<?xml version="1.0" encoding="UTF-8"?>
<svg xmlns="http://www.w3.org/2000/svg" viewBox="-32 -24 128 128" width="128" height="128">
	<path fill="#ffffff" d="m20.686741,51.699261l0,5.176517l20.678093,0l0,-5.176517l-7.749371,0l0,-25.874184l-12.928722,0l0,5.231066l7.750805,0l0,20.643118l-7.750805,0z"/>
	<path fill="#ffffff" d="m56.864738,67.29245l-51.693819,0l0,-51.763775l33.610987,0l0,-5.173717l-38.781919,0l0,62.107001l62.034265,0l0,-38.821075l-5.169514,0l0,33.651566z"/>
	<path fill="#ffffff" d="m62.038044,-0.000022l-5.161144,0l0,10.355835l-10.350235,0l0,5.168115l10.350235,0l0,10.355835l5.161144,0l0,-10.355835l10.332027,0l0,-5.168115l-10.332027,0l0,-10.355835z"/>
</svg>
