<?xml version="1.0"?>
<svg xmlns="http://www.w3.org/2000/svg" xmlns:xlink="http://www.w3.org/1999/xlink" viewBox="-20 -48 256 256" width="256" height="256">
	<path fill="#ffffff" d="M28.534 0v62.444c9.507-11.335 20.9-17.046 34.12-17.046 6.806 0 12.91 1.294 18.367 3.88 5.486 2.56 9.59 5.852 12.348 9.846 2.785 4.023 4.67 8.438 5.68 13.304 1.016 4.84 1.522 12.377 1.522 22.587v66.775h-29.535v-60.137c0-11.925-.536-19.493-1.66-22.7-1.125-3.233-3.095-5.766-5.935-7.65-2.842-1.912-6.385-2.87-10.66-2.87-4.894 0-9.283 1.238-13.107 3.658-3.88 2.447-6.694 6.104-8.466 10.998-1.802 4.895-2.703 12.123-2.673 21.687l-.03 57.015h-29.505v-161.791h29.534zm116.31 0v62.444c9.504-11.335 20.898-17.046 34.116-17.046 6.78 0 12.91 1.294 18.398 3.88 5.455 2.56 9.562 5.852 12.317 9.846 2.785 4.023 4.67 8.438 5.683 13.304 1.013 4.84 1.52 12.377 1.52 22.587v66.775h-29.508v-60.137c0-11.925-.56-19.493-1.687-22.7-1.126-3.233-3.093-5.766-5.936-7.65-2.813-1.912-6.386-2.87-10.66-2.87-4.895 0-9.282 1.238-13.108 3.658-3.852 2.447-6.665 6.104-8.467 10.998-1.772 4.895-2.67 12.123-2.67 21.687v57.015h-29.507v-161.791h29.508zm-145.76"/>
</svg>