<svg
	xmlns="http://www.w3.org/2000/svg"
	width="44"
	height="22"
	viewBox="0 0 49 22"
	>
	<path
		fill="#fff"
		fill-rule="eveodd"
		d="M 2 12 v -1 h 1 v -1 h 1 v -1 h 1 v -1 h 1 v -1 h 1 v -1 h 1 v -1 h 1 v -1 h 1 v -1 h 1 v -1 h 30 v 1 h 1 v 1 h 1 v 1 h 1 v 1 h 1 v 1 h 1 v 1 h 1 v 10 h -1 v 1 h -1 v 1 h -37 v -1 h -1 v -1 h -1 v -1 h -1 v -1 h -1 v -1 h -1 v -1 h -1 z
		M 14 4 h -1 v 1 h -1 v 8 h 1 v 1 h 16 v -1 h 1 v -8 h -1 v -1 z
		M 34 4 v 1 h -1 v 1 h -1 v 1 h -1 v 4 h 1 v 1 h 1 v 1 h 1 v 1 h 4 v -1 h 1 v -1 h 1 v -1 h 1 v -4 h -1 v -1 h -1 v -1 h -1 v -1 z
		M 43 11 v 1 h -1 v 1 h 1 v 1 h 1 v -1 h 1 v -1 h -1 v -1 z"
		/>
</svg>
