<svg
    xmlns="http://www.w3.org/2000/svg"
    width="22"
    height="22"
    viewBox="0 0 22 22"
    >
    <path
        fill="white"
        fill-rule="nonzero"
        d="M 1 7 v 8 h 1 v 2 h 1 v 1 h 1 v 1 h 1 v 1 h 2 v 1 h 8 v -1 h 2 v -1 h 1 v -1 h 1 v -1 h 1 v -2 h 1 v -8 h -1 v -2 h -1 v -1 h -1 v -1 h -1 v -1 h -2 v -1 h -8 v 1 h -2 v 1 h -1 v 1 h -1 v 1 h -1 v 2 h -1 z
        M 6 6 h 3 v 3 h -3 z
        M 13 6 h 3 v 3 h -3 z
        M 4 12 h 2 v 2 h 1 v 1 h 2 v 1 h 4 v -1 h 2 v -1 h 1 v -2 h 2 v 3 h -1 v 1 h -1 v 1 h -2 v 1 h -6 v -1 h -2 v -1 h -1 v -1 h -1 z"
        />
</svg>